HIERARCHY
ROOT SpineBase
{
  OFFSET 0.000000 0.000000 0.000000
  CHANNELS 6 Xposition Yposition Zposition Zrotation Xrotation Yrotation
  JOINT SpineMid
  {
    OFFSET 0.000000 28.101491 0.000000
    CHANNELS 3 Zrotation Xrotation Yrotation
    JOINT SpineShoulder
    {
      OFFSET 0.025226 20.841333 -0.728899
      CHANNELS 3 Zrotation Xrotation Yrotation
      JOINT Neck
      {
        OFFSET -0.021717 6.873779 -0.544642
        CHANNELS 3 Zrotation Xrotation Yrotation
        JOINT Head
        {
          OFFSET -3.665232 13.686445 -0.197038
          CHANNELS 3 Zrotation Xrotation Yrotation
          End Site
          {
            OFFSET 0 0 0
          }
        }
      }
      JOINT ShoulderLeft
      {
        OFFSET -17.418009 -4.877644 7.491533
        CHANNELS 3 Zrotation Xrotation Yrotation
        JOINT ElbowLeft
        {
          OFFSET -0.316110 -24.768702 0.302351
          CHANNELS 3 Zrotation Xrotation Yrotation
          JOINT WristLeft
          {
            OFFSET 0.562389 -20.599515 -8.465503
            CHANNELS 3 Zrotation Xrotation Yrotation
            JOINT HandLeft
            {
              OFFSET 1.833086 -4.112819 -2.595968
              CHANNELS 3 Zrotation Xrotation Yrotation
              JOINT HandTipLeft
              {
                OFFSET 1.109942 -6.290477 -0.836010
                CHANNELS 3 Zrotation Xrotation Yrotation
                End Site
                {
                  OFFSET 0 0 0
                }
              }
              JOINT ThumbLeft
              {
                OFFSET 3.093761 -1.671777 -2.925477
                CHANNELS 3 Zrotation Xrotation Yrotation
                End Site
                {
                  OFFSET 0 0 0
                }
              }
            }
          }
        }
      }
      JOINT ShoulderRight
      {
        OFFSET 15.023885 -2.634141 -7.034299
        CHANNELS 3 Zrotation Xrotation Yrotation
        JOINT ElbowRight
        {
          OFFSET 5.542469 -21.960591 -1.619674
          CHANNELS 3 Zrotation Xrotation Yrotation
          JOINT WristRight
          {
            OFFSET -4.138430 -19.739323 -5.062220
            CHANNELS 3 Zrotation Xrotation Yrotation
            JOINT HandRight
            {
              OFFSET -3.056612 -6.497971 -1.145592
              CHANNELS 3 Zrotation Xrotation Yrotation
              JOINT HandTipRight
              {
                OFFSET -1.577513 -6.785207 0.063025
                CHANNELS 3 Zrotation Xrotation Yrotation
                End Site
                {
                  OFFSET 0 0 0
                }
              }
              JOINT ThumbRight
              {
                OFFSET 2.084721 -1.418508 -2.743372
                CHANNELS 3 Zrotation Xrotation Yrotation
                End Site
                {
                  OFFSET 0 0 0
                }
              }
            }
          }
        }
      }
    }
  }
  JOINT HipLeft
  {
    OFFSET -6.368383 0.022120 -0.587318
    CHANNELS 3 Zrotation Xrotation Yrotation
    JOINT KneeLeft
    {
      OFFSET 2.472961 -33.070004 2.787236
      CHANNELS 3 Zrotation Xrotation Yrotation
      JOINT AnkleLeft
      {
        OFFSET 1.915223 -31.518939 5.278894
        CHANNELS 3 Zrotation Xrotation Yrotation
        JOINT FootLeft
        {
          OFFSET -3.396597 -4.861242 -10.748615
          CHANNELS 3 Zrotation Xrotation Yrotation
          End Site
          {
            OFFSET 0 0 0
          }
        }
      }
    }
  }
  JOINT HipRight
  {
    OFFSET 5.975403 0.841160 -6.120427
    CHANNELS 3 Zrotation Xrotation Yrotation
    JOINT KneeRight
    {
      OFFSET 7.347386 -34.498905 3.243657
      CHANNELS 3 Zrotation Xrotation Yrotation
      JOINT AnkleRight
      {
        OFFSET 2.980390 -30.457543 5.145125
        CHANNELS 3 Zrotation Xrotation Yrotation
        JOINT FootRight
        {
          OFFSET -1.342045 -7.734288 -6.390786
          CHANNELS 3 Zrotation Xrotation Yrotation
          End Site
          {
            OFFSET 0 0 0
          }
        }
      }
    }
  }
}
MOTION
Frames: 6
Frame Time: 0.033333
24.632273 67.676895 381.218676 31.008077 -5.929548 35.400994 -0.324287 -0.178933 -32.546524 -0.045555 -0.007170 1.354211 7.777760 0.278723 -4.064674 0.000000 0.000000 0.000000 -7.424859 -4.246448 -0.637257 6.577315 61.483878 -23.353693 29.104672 1.731712 10.663441 -20.189104 30.648108 1.977256 0.000000 0.000000 0.000000 0.000000 0.000000 0.000000 37.935374 18.163156 -17.472420 -96.585452 -9.288416 -9.257158 8.961246 -41.449799 7.225936 -19.754081 24.137684 -2.216422 0.000000 0.000000 0.000000 0.000000 0.000000 0.000000 -45.415662 40.680407 -18.943786 13.190762 -8.620318 -0.402049 16.694547 -18.864297 9.867472 0.000000 0.000000 0.000000 -9.626595 34.743794 -31.694281 -5.540444 -22.127677 -5.636886 0.174396 6.511224 0.431434 0.000000 0.000000 0.000000
23.714237 66.707034 381.836633 33.769956 -6.318914 34.483142 -0.833540 0.271174 -31.257471 -0.030779 -0.003996 1.449014 11.365220 1.762093 -4.693301 0.000000 0.000000 0.000000 -9.380250 -7.590599 0.116383 15.230049 65.092987 -31.850957 19.678086 4.356909 12.052555 -11.046273 26.017687 -0.042819 0.000000 0.000000 0.000000 0.000000 0.000000 0.000000 36.616528 14.718389 -16.788375 -97.118910 -6.686823 -5.595419 4.749619 -43.125418 6.458770 -15.193312 28.604706 -4.030453 0.000000 0.000000 0.000000 0.000000 0.000000 0.000000 -49.604658 41.732453 -15.737247 14.554842 -9.008595 -0.015950 15.470838 -17.560854 7.893658 0.000000 0.000000 0.000000 -11.546466 36.851466 -30.193699 -4.938735 -22.523746 -5.335105 1.078226 4.555473 -1.440134 0.000000 0.000000 0.000000
22.732232 66.117817 382.413254 35.933938 -6.780944 32.902381 -0.555963 0.073018 -29.314379 -0.155817 0.023310 1.553994 11.997935 3.251878 -5.355714 0.000000 0.000000 0.000000 -12.363658 -9.839431 0.656674 35.542493 69.138242 -51.118242 7.741971 0.972146 14.751903 1.013469 23.005989 -0.647561 0.000000 0.000000 0.000000 0.000000 0.000000 0.000000 33.527025 15.461879 -17.188782 -98.637197 -5.020269 -5.222027 2.922423 -38.725359 3.294445 -2.681275 28.637277 -9.990704 0.000000 0.000000 0.000000 0.000000 0.000000 0.000000 -53.208336 41.939125 -12.412327 15.755109 -9.348699 0.390479 12.561253 -10.997945 4.186362 0.000000 0.000000 0.000000 -14.680798 38.365758 -27.503253 -2.667576 -22.120378 -4.244685 -0.370531 4.716487 -2.341319 0.000000 0.000000 0.000000
21.653854 65.660325 382.966357 38.061115 -7.229963 30.093645 -0.674332 0.134908 -26.126092 -0.217338 0.025848 1.644145 12.046120 4.381139 -5.932307 0.000000 0.000000 0.000000 -14.243405 -8.693245 0.493650 53.372816 68.106261 -67.951798 2.388510 -2.105805 15.837935 5.979259 20.329619 0.170921 0.000000 0.000000 0.000000 0.000000 0.000000 0.000000 28.945983 13.740122 -16.161414 -97.701009 -3.052609 -1.939511 3.944301 -38.693633 2.508720 -2.415147 34.002047 -9.534956 0.000000 0.000000 0.000000 0.000000 0.000000 0.000000 -58.315473 40.469537 -7.962202 18.108748 -9.065650 1.101825 10.205289 -7.912145 2.365259 0.000000 0.000000 0.000000 -19.441787 39.219897 -22.981952 0.365404 -21.503925 -2.824040 -5.479603 8.326507 -0.940343 0.000000 0.000000 0.000000
20.800283 65.379955 383.383812 39.179718 -7.643854 26.712241 -0.351816 -0.033741 -22.489512 -0.176828 -0.009052 1.724468 12.883477 4.676536 -6.425945 0.000000 0.000000 0.000000 -15.973280 -3.293130 -0.556324 61.223266 64.136619 -73.456390 2.772989 -4.837202 16.831852 6.439550 17.715302 2.139110 0.000000 0.000000 0.000000 0.000000 0.000000 0.000000 23.101907 9.975653 -14.161755 -95.209445 -0.950935 3.650418 3.757054 -38.161637 1.707361 -9.113356 39.964969 -4.823643 0.000000 0.000000 0.000000 0.000000 0.000000 0.000000 -63.245042 37.958271 -3.713322 21.333507 -8.621822 1.934447 9.346204 -8.923986 0.978349 0.000000 0.000000 0.000000 -24.081529 39.003551 -17.956395 3.722442 -20.787054 -1.318665 -8.434770 10.154995 -1.162035 0.000000 0.000000 0.000000
20.351915 64.904524 383.736959 39.705893 -8.181544 22.031406 0.230959 -0.213408 -17.592573 -0.262881 -0.020301 1.779851 7.687122 5.259013 -6.259353 0.000000 0.000000 0.000000 -14.473026 2.987169 -2.035697 62.956205 61.899614 -75.434031 -6.377669 -12.161689 16.716854 20.558069 15.118631 5.115764 0.000000 0.000000 0.000000 0.000000 0.000000 0.000000 16.792867 5.445259 -12.060636 -90.994419 0.235210 9.784622 0.734900 -40.564428 1.483827 -20.866705 44.940282 3.678188 0.000000 0.000000 0.000000 0.000000 0.000000 0.000000 -67.159159 32.994444 -0.033257 24.422314 -7.035918 2.663965 6.301326 -4.848776 0.147818 0.000000 0.000000 0.000000 -29.590759 37.655649 -11.498151 7.856616 -19.275781 0.421563 -9.757075 10.089944 -2.928404 0.000000 0.000000 0.000000
